<svg id="Layer_2" data-name="Layer 2" xmlns="http://www.w3.org/2000/svg" viewBox="0 0 134 150.19"><defs><style>.cls-1{fill:#ee3924;}.cls-2{fill:#231f20;}</style></defs><title>CAL-logo</title><ellipse class="cls-1" cx="220.98" cy="327.73" rx="7.98" ry="6.08" transform="translate(-287.83 -195.64) rotate(-22.3)"/><polygon class="cls-1" points="75.15 104.77 82.35 104.77 78.66 80.22 75.15 104.77"/><path class="cls-1" d="M263.25,304s.58.93.75,1.25c.28.52.78,1.61,1,2.17s.53,1.49.67,2a20.29,20.29,0,0,1,.36,2.43c.05.52.14,1.55.14,2.07a28.22,28.22,0,0,1-.1,3,12.82,12.82,0,0,1-.78,2.78,14.67,14.67,0,0,1-1,1.78,7.12,7.12,0,0,1-1.78,1.69,10.76,10.76,0,0,1-3.22,1.56,15.62,15.62,0,0,1-3.58.5c-3.82.13-4.65-.14-6.6-1a20.84,20.84,0,0,1-4.09-2.31c-1.28-1-1.92-1.7-2.8-2.27a10,10,0,0,0-2.83-1.33,4.81,4.81,0,0,0-2.65,0,3.16,3.16,0,0,0-2,2.63,4.84,4.84,0,0,0,.71,3.44,8.69,8.69,0,0,0,2.41,2.21c1.1.74,3.41,2,4.46,2.85a23.62,23.62,0,0,1,3,2.85,11.34,11.34,0,0,1,1.72,3.32,13.68,13.68,0,0,1,.53,3,8.16,8.16,0,0,1-.34,3,11.47,11.47,0,0,1-2.85,4.81,31.5,31.5,0,0,1-3.83,3.75c-.93.76-3,2-4,2.67s-3.07,1.7-4.12,2.18c-.9.41-2.7,1.07-3.62,1.41-1.2.43-3.54,1.43-4.75,1.83-1.44.48-4.36,1.29-5.83,1.67-2,.51-3.65,1-5.64,1.34a52.71,52.71,0,0,1-5.36.66c-2.45.11-6,.14-8,0-2.62-.18-5.39-.39-8-.81-1.19-.2-6-1.21-7.19-1.52-1-.27-4-1.33-4-1.33V438H314V304Zm-26.19,85.76h-9.32c0-3.6-.09-6.37-.18-7.85-.37-3-2.31-4.89-5-4.89-2.4,0-4.06,1.48-4.71,4.06a55.27,55.27,0,0,0-.46,9.32V410c0,5.91.18,8.49.65,9.78a4.68,4.68,0,0,0,4.52,3.51c2.68,0,4.62-2,4.89-5.17.18-1.66.28-6.18.28-9h9.32v3.51c0,6.37-.37,8.77-2.12,12a13.32,13.32,0,0,1-12.28,7.2,13.61,13.61,0,0,1-10.8-4.89c-3-3.69-3.69-6.74-3.69-16.34V389.76c0-9.69.65-12.74,3.69-16.43a13.61,13.61,0,0,1,10.8-4.89c5.35,0,10,2.49,12.28,6.74,1.66,3,2.12,5.26,2.12,11.26Zm28.79,41.17-2.12-13.57h-9.88l-2.12,13.57h-9.14l10.06-61.56h12l10.71,61.56Zm40.33,0H281.64V369.36h9.23v53h15.32Z" transform="translate(-180 -304)"/><path class="cls-2" d="M184,447.32c0-.59,0-1,0-1.28a1,1,0,0,0-1-.8.93.93,0,0,0-1,.66,7.25,7.25,0,0,0-.09,1.52v3.2a4.88,4.88,0,0,0,.13,1.6,1,1,0,0,0,1.92-.27c0-.27.06-1,.06-1.46h1.91v.57a2.93,2.93,0,0,1-.43,2,2.88,2.88,0,0,1-2.51,1.18,3.12,3.12,0,0,1-2.21-.8c-.62-.6-.75-1.1-.75-2.67v-3.41c0-1.58.13-2.08.75-2.68a3.12,3.12,0,0,1,2.21-.8,3,3,0,0,1,2.51,1.1,2.72,2.72,0,0,1,.43,1.84v.54Z" transform="translate(-180 -304)"/><path class="cls-2" d="M189.33,451.82,188.9,454H187L189.09,444h2.45L193.73,454h-1.94l-.43-2.22Zm1-5.41-.72,4h1.47Z" transform="translate(-180 -304)"/><path class="cls-2" d="M200,454h-5V444h1.89v8.65H200Z" transform="translate(-180 -304)"/><path class="cls-2" d="M203,454h-1.89V444H203Z" transform="translate(-180 -304)"/><path class="cls-2" d="M209.76,445.39h-3.19v2.74h2.32v1.4h-2.32V454h-1.89V444h5.07Z" transform="translate(-180 -304)"/><path class="cls-2" d="M216.89,450.77c0,1.49-.15,2-.75,2.62a3.42,3.42,0,0,1-4.4,0c-.6-.59-.75-1.15-.75-2.62v-3.51c0-1.48.15-2,.75-2.62a3.18,3.18,0,0,1,2.21-.8,3.14,3.14,0,0,1,2.19.8c.6.59.75,1.13.75,2.62Zm-4-.17a5.06,5.06,0,0,0,.13,1.61,1,1,0,0,0,.94.57.94.94,0,0,0,1-.66,7.22,7.22,0,0,0,.09-1.52v-3.18a4.91,4.91,0,0,0-.13-1.61,1,1,0,0,0-1.91.09,7.47,7.47,0,0,0-.09,1.52Z" transform="translate(-180 -304)"/><path class="cls-2" d="M220.41,454h-1.89V444h2.64c2.19,0,3.15.9,3.15,2.91a2.5,2.5,0,0,1-1.26,2.53L224.5,454h-2l-1.19-4.21h-.91Zm.6-5.61c.64,0,.89-.08,1.09-.32a2.07,2.07,0,0,0,.32-1.21,1.78,1.78,0,0,0-.38-1.25c-.19-.21-.43-.27-1-.27h-.6v3Z" transform="translate(-180 -304)"/><path class="cls-2" d="M230.44,454l-2.74-6.21V454H226V444h1.91l2.58,6v-6h1.75V454Z" transform="translate(-180 -304)"/><path class="cls-2" d="M235.76,454h-1.89V444h1.89Z" transform="translate(-180 -304)"/><path class="cls-2" d="M239.51,451.82l-.43,2.22h-1.87L239.27,444h2.45L243.91,454H242l-.43-2.22Zm1-5.41-.72,4h1.47Z" transform="translate(-180 -304)"/><path class="cls-2" d="M250.49,451.82l-.43,2.22h-1.87L250.24,444h2.45L254.88,454h-1.94l-.43-2.22Zm1-5.41-.72,4h1.47Z" transform="translate(-180 -304)"/><path class="cls-2" d="M258,454h-1.89V444h2.64c2.19,0,3.15.9,3.15,2.91a2.5,2.5,0,0,1-1.26,2.53l1.45,4.61h-2L259,449.83H258Zm.6-5.61c.64,0,.89-.08,1.09-.32a2.07,2.07,0,0,0,.32-1.21,1.78,1.78,0,0,0-.38-1.25c-.19-.21-.43-.27-1-.27H258v3Z" transform="translate(-180 -304)"/><path class="cls-2" d="M266.91,454H265v-8.65h-2V444H269v1.4h-2Z" transform="translate(-180 -304)"/><path class="cls-2" d="M278.28,454h-5V444h1.89v8.65h3.13Z" transform="translate(-180 -304)"/><path class="cls-2" d="M284.51,445.39h-3.24v2.74h2.34v1.4h-2.34v3.1h3.24V454h-5.13V444h5.13Z" transform="translate(-180 -304)"/><path class="cls-2" d="M288.13,451.82l-.43,2.22h-1.87L287.88,444h2.45L292.52,454h-1.94l-.43-2.22Zm1-5.41-.72,4h1.47Z" transform="translate(-180 -304)"/><path class="cls-2" d="M299.59,454h-.92l-.36-.8a2.17,2.17,0,0,1-2,.95,2.55,2.55,0,0,1-2.07-.86,4,4,0,0,1-.57-2.5v-3.51c0-1.57.13-2.08.75-2.68a3.12,3.12,0,0,1,2.21-.8,2.74,2.74,0,0,1,2.81,1.7,5,5,0,0,1,.13,1.73h-1.91c0-.6,0-1,0-1.22a1,1,0,0,0-1-.8.94.94,0,0,0-1,.66,7.28,7.28,0,0,0-.09,1.51v3.18a6.64,6.64,0,0,0,.13,1.6,1,1,0,0,0,1.91-.08,7.43,7.43,0,0,0,.09-1.52v-.41h-1.15v-1.25h3Z" transform="translate(-180 -304)"/><path class="cls-2" d="M307.17,444v6.78c0,1.49-.15,2-.75,2.62a3.42,3.42,0,0,1-4.4,0c-.6-.59-.75-1.15-.75-2.62V444h1.89v6.62a5.07,5.07,0,0,0,.13,1.61,1,1,0,0,0,.94.57.94.94,0,0,0,1-.66,7.27,7.27,0,0,0,.09-1.52V444Z" transform="translate(-180 -304)"/><path class="cls-2" d="M314,445.39h-3.24v2.74h2.34v1.4h-2.34v3.1H314V454h-5.13V444H314Z" transform="translate(-180 -304)"/></svg>